<svg xmlns="http://www.w3.org/2000/svg" width="1080" height="1920" viewBox="0 0 1080 1920"><defs><linearGradient id="sky" x1="0" y1="0" x2="0" y2="1"><stop offset="0" stop-color="#d9fbff"/><stop offset="0.48" stop-color="#8fd8df"/><stop offset="1" stop-color="#1e5964"/></linearGradient><filter id="blur"><feGaussianBlur stdDeviation="22"/></filter></defs><rect width="1080" height="1920" fill="url(#sky)"/><circle cx="820" cy="310" r="120" fill="#fff" opacity=".68" filter="url(#blur)"/><path d="M0 930 C180 790 320 840 470 760 C670 650 850 680 1080 540 L1080 1920 L0 1920Z" fill="#dff8f1" opacity=".72"/><path d="M0 1080 C260 950 430 1030 620 920 C820 805 940 840 1080 760 L1080 1920 L0 1920Z" fill="#9ecdc7" opacity=".82"/><path d="M0 1260 C230 1180 450 1220 610 1120 C790 1005 980 1040 1080 990 L1080 1920 L0 1920Z" fill="#2f6670" opacity=".82"/><g opacity=".65" stroke="#fff" stroke-width="8"><path d="M140 1390 C330 1340 520 1340 750 1290"/><path d="M220 1490 C430 1440 650 1460 910 1390"/><path d="M90 1600 C300 1550 570 1580 980 1495"/></g></svg>
